<svg xmlns="http://www.w3.org/2000/svg" viewBox="0 0 150 150">
  <defs>
    <style>
      .cls-1 {
        fill: none;
      }

      .cls-2 {
        fill: #0072bc;
        stroke: #0072bc;
        stroke-miterlimit: 10;
      }
    </style>
  </defs>
  <g id="Layer_2" data-name="Layer 2">
    <g id="Layer_1-2" data-name="Layer 1">
      <g>
        <rect class="cls-1" width="150" height="150"/>
        <g>
          <g>
            <path class="cls-2" d="M57.12,63.15l4,5.57h2l-4.31-5.95a5.41,5.41,0,0,0,3.93-5.52c0-3.73-2.74-6-7.18-5.9H49.1l.15,17.42h1.84V63.25h4.69ZM51,61.71V53h4.64c3.48,0,5.35,1.53,5.37,4.33s-1.81,4.37-5.29,4.39Z"/>
            <path class="cls-2" d="M76.46,65.42a5,5,0,0,1-4,1.74,4.85,4.85,0,0,1-5.2-4.39h11v-.55a6.23,6.23,0,0,0-5.65-6.77c-.24,0-.49,0-.73,0a6.33,6.33,0,0,0-6.37,6.3c0,.13,0,.26,0,.38a6.49,6.49,0,0,0,6.34,6.63c.2,0,.4,0,.6,0a6.45,6.45,0,0,0,5-2.17Zm-4.61-8.48a4.53,4.53,0,0,1,4.69,4.32H67.26A4.57,4.57,0,0,1,71.85,56.94Z"/>
            <path class="cls-2" d="M82.26,59c0-1.23,1-2.17,3.38-2.19A6.59,6.59,0,0,1,89.5,57.9l.76-1.43a8.64,8.64,0,0,0-4.64-1.26c-3.33,0-5.05,1.63-5.05,3.78,0,5.17,8.5,2.52,8.53,5.8,0,1.31-1,2.17-3.48,2.19A8,8,0,0,1,81,65.54l-.78,1.52a8.93,8.93,0,0,0,5.35,1.56c3.4,0,5.37-1.54,5.34-3.78C90.74,59.79,82.29,62.54,82.26,59Z"/>
            <path class="cls-2" d="M98.4,67a2.1,2.1,0,0,1-2.28-1.89,2.57,2.57,0,0,1,0-.48V56.79h4V55.21H96V52.43H94.27v2.78H91.92v1.48h2.35v7.9a3.47,3.47,0,0,0,3.13,3.79,3.76,3.76,0,0,0,.75,0,4.18,4.18,0,0,0,2.75-1l-.63-1.26A3.06,3.06,0,0,1,98.4,67Z"/>
            <path class="cls-2" d="M60.7,81.18,52.91,98.65h2L57,94h9.7l2.15,4.64h1.94L62.52,81.15Zm-3.23,11.3,4.11-9.41,4.27,9.33Z"/>
            <path class="cls-2" d="M79.89,81h-6.5l.15,17.43h1.84v-5.5h4.69c4.44,0,7.08-2.29,7.06-6S84.33,81,79.89,81Zm0,10.29H75.28V82.57h4.61c3.48,0,5.35,1.53,5.37,4.31s-1.84,4.39-5.32,4.41Z"/>
            <rect class="cls-2" x="91.1" y="80.88" width="1.84" height="17.43" transform="translate(-0.84 0.87) rotate(-0.54)"/>
          </g>
          <g>
            <path class="cls-2" d="M25,72c6-1.71,6.62-5.94,6.62-13V43.81c0-6.59,4.85-11,7.5-11h6.44v6H42c-3.17,0-3.17,2.44-3.17,6.18V60.39c0,9.51-5.56,13.58-6.71,14.23,1.15.65,6.71,4.71,6.71,14.3v15.29c0,3.74,0,6.18,3.17,6.18h3.53v6H39.12c-2.65,0-7.5-4.39-7.5-11V90.31c0-7.16-.62-11.38-6.62-13.09Z"/>
            <path class="cls-2" d="M125,72.78c-6-1.71-6.62-5.93-6.62-13V44.57c0-6.58-4.85-11-7.5-11h-6.44v6H108c3.17,0,3.17,2.44,3.17,6.18V61.16c0,9.51,5.56,13.57,6.71,14.22-1.15.65-6.71,4.72-6.71,14.31V105c0,3.74,0,6.18-3.17,6.18h-3.53v6h6.44c2.65,0,7.5-4.39,7.5-11V91.07c0-7.15.62-11.38,6.62-13.09Z"/>
          </g>
        </g>
      </g>
    </g>
  </g>
</svg>
